<svg width="640" height="286" viewBox="0 0 640 286" fill="none" xmlns="http://www.w3.org/2000/svg">
<path d="M25.2 69.52L0.84 43L25.2 16.48H51L26.52 43L51 69.52H25.2ZM113.974 70.12H82.5338L77.4938 85H56.0138L86.4938 0.759997H110.254L140.734 85H119.014L113.974 70.12ZM108.694 54.28L98.2538 23.44L87.9338 54.28H108.694ZM216.25 0.759997L187.09 57.16V85H166.57V57.16L137.41 0.759997H160.69L177.01 36.04L193.21 0.759997H216.25ZM293.878 85H273.358L239.038 33.04V85H218.518V0.759997H239.038L273.358 52.96V0.759997H293.878V85ZM323.273 0.759997V85H302.753V0.759997H323.273ZM74.4 100.76V185H53.88V150.32H21.96V185H1.44V100.76H21.96V133.76H53.88V100.76H74.4ZM135.653 170.12H104.213L99.1734 185H77.6934L108.173 100.76H131.933L162.413 185H140.693L135.653 170.12ZM130.373 154.28L119.933 123.44L109.613 154.28H130.373ZM162.21 142.76C162.21 134.44 164.01 127.04 167.61 120.56C171.21 114 176.21 108.92 182.61 105.32C189.09 101.64 196.41 99.8 204.57 99.8C214.57 99.8 223.13 102.44 230.25 107.72C237.37 113 242.13 120.2 244.53 129.32H221.97C220.29 125.8 217.89 123.12 214.77 121.28C211.73 119.44 208.25 118.52 204.33 118.52C198.01 118.52 192.89 120.72 188.97 125.12C185.05 129.52 183.09 135.4 183.09 142.76C183.09 150.12 185.05 156 188.97 160.4C192.89 164.8 198.01 167 204.33 167C208.25 167 211.73 166.08 214.77 164.24C217.89 162.4 220.29 159.72 221.97 156.2H244.53C242.13 165.32 237.37 172.52 230.25 177.8C223.13 183 214.57 185.6 204.57 185.6C196.41 185.6 189.09 183.8 182.61 180.2C176.21 176.52 171.21 171.44 167.61 164.96C164.01 158.48 162.21 151.08 162.21 142.76ZM299.936 185L271.616 147.8V185H251.096V100.76H271.616V137.72L299.696 100.76H323.816L291.176 142.04L325.016 185H299.936ZM381.208 170.12H349.768L344.728 185H323.248L353.728 100.76H377.488L407.968 185H386.248L381.208 170.12ZM375.928 154.28L365.488 123.44L355.168 154.28H375.928ZM471.845 100.76V117.2H449.525V185H429.005V117.2H406.685V100.76H471.845ZM515.983 185.84C508.063 185.84 500.783 184 494.143 180.32C487.583 176.64 482.343 171.52 478.423 164.96C474.583 158.32 472.663 150.88 472.663 142.64C472.663 134.4 474.583 127 478.423 120.44C482.343 113.88 487.583 108.76 494.143 105.08C500.783 101.4 508.063 99.56 515.983 99.56C523.903 99.56 531.143 101.4 537.703 105.08C544.343 108.76 549.543 113.88 553.303 120.44C557.143 127 559.063 134.4 559.063 142.64C559.063 150.88 557.143 158.32 553.303 164.96C549.463 171.52 544.263 176.64 537.703 180.32C531.143 184 523.903 185.84 515.983 185.84ZM515.983 167.12C522.703 167.12 528.063 164.88 532.063 160.4C536.143 155.92 538.183 150 538.183 142.64C538.183 135.2 536.143 129.28 532.063 124.88C528.063 120.4 522.703 118.16 515.983 118.16C509.183 118.16 503.743 120.36 499.663 124.76C495.663 129.16 493.663 135.12 493.663 142.64C493.663 150.08 495.663 156.04 499.663 160.52C503.743 164.92 509.183 167.12 515.983 167.12ZM639.839 185H619.319L584.999 133.04V185H564.479V100.76H584.999L619.319 152.96V100.76H639.839V185ZM76.8 285H56.28L21.96 233.04V285H1.44V200.76H21.96L56.28 252.96V200.76H76.8V285ZM138.114 270.12H106.674L101.634 285H80.1544L110.634 200.76H134.394L164.874 285H143.154L138.114 270.12ZM132.834 254.28L122.394 223.44L112.074 254.28H132.834ZM164.671 242.76C164.671 234.44 166.471 227.04 170.071 220.56C173.671 214 178.671 208.92 185.071 205.32C191.551 201.64 198.871 199.8 207.031 199.8C217.031 199.8 225.591 202.44 232.711 207.72C239.831 213 244.591 220.2 246.991 229.32H224.431C222.751 225.8 220.351 223.12 217.231 221.28C214.191 219.44 210.711 218.52 206.791 218.52C200.471 218.52 195.351 220.72 191.431 225.12C187.511 229.52 185.551 235.4 185.551 242.76C185.551 250.12 187.511 256 191.431 260.4C195.351 264.8 200.471 267 206.791 267C210.711 267 214.191 266.08 217.231 264.24C220.351 262.4 222.751 259.72 224.431 256.2H246.991C244.591 265.32 239.831 272.52 232.711 277.8C225.591 283 217.031 285.6 207.031 285.6C198.871 285.6 191.551 283.8 185.071 280.2C178.671 276.52 173.671 271.44 170.071 264.96C166.471 258.48 164.671 251.08 164.671 242.76ZM274.077 200.76V285H253.557V200.76H274.077ZM322.788 285.84C314.868 285.84 307.588 284 300.948 280.32C294.388 276.64 289.148 271.52 285.228 264.96C281.388 258.32 279.468 250.88 279.468 242.64C279.468 234.4 281.388 227 285.228 220.44C289.148 213.88 294.388 208.76 300.948 205.08C307.588 201.4 314.868 199.56 322.788 199.56C330.708 199.56 337.948 201.4 344.508 205.08C351.148 208.76 356.348 213.88 360.108 220.44C363.948 227 365.868 234.4 365.868 242.64C365.868 250.88 363.948 258.32 360.108 264.96C356.268 271.52 351.068 276.64 344.508 280.32C337.948 284 330.708 285.84 322.788 285.84ZM322.788 267.12C329.508 267.12 334.868 264.88 338.868 260.4C342.948 255.92 344.988 250 344.988 242.64C344.988 235.2 342.948 229.28 338.868 224.88C334.868 220.4 329.508 218.16 322.788 218.16C315.988 218.16 310.548 220.36 306.468 224.76C302.468 229.16 300.468 235.12 300.468 242.64C300.468 250.08 302.468 256.04 306.468 260.52C310.548 264.92 315.988 267.12 322.788 267.12ZM446.644 285H426.124L391.804 233.04V285H371.284V200.76H391.804L426.124 252.96V200.76H446.644V285ZM507.958 270.12H476.518L471.478 285H449.998L480.478 200.76H504.238L534.718 285H512.998L507.958 270.12ZM502.678 254.28L492.238 223.44L481.918 254.28H502.678ZM558.515 269.16H585.395V285H537.995V200.76H558.515V269.16ZM589.302 216.48H615.102L639.462 243L615.102 269.52H589.302L613.782 243L589.302 216.48Z" fill="url(#paint0_linear_0_1617)"/>
<defs>
<linearGradient id="paint0_linear_0_1617" x1="45.8378" y1="92.122" x2="656.123" y2="95.8507" gradientUnits="userSpaceOnUse">
<stop stop-color="#58A7FE"/>
<stop offset="1" stop-color="#7FE786"/>
</linearGradient>
</defs>
</svg>
